<svg xmlns="http://www.w3.org/2000/svg" xmlns:xlink="http://www.w3.org/1999/xlink" width="1366" zoomAndPan="magnify" viewBox="0 0 1024.5 576" height="768" preserveAspectRatio="xMidYMid meet" version="1.0"><defs><g/><clipPath id="88869e398d"><path d="M 854.238281 250.511719 L 866.230469 250.511719 L 866.230469 262.507812 L 854.238281 262.507812 Z M 854.238281 250.511719 " clip-rule="nonzero"/></clipPath><clipPath id="fdc49ebeb2"><path d="M 869.714844 4.046875 L 999.402344 4.046875 L 999.402344 269.417969 L 869.714844 269.417969 Z M 869.714844 4.046875 " clip-rule="nonzero"/></clipPath><clipPath id="d8e30c35e1"><path d="M 94.226562 87.660156 L 568.746094 87.660156 L 568.746094 562 L 94.226562 562 Z M 94.226562 87.660156 " clip-rule="nonzero"/></clipPath></defs><g clip-path="url(#88869e398d)"><path fill="#000000" d="M 860.269531 250.511719 C 856.945312 250.511719 854.238281 253.21875 854.238281 256.542969 C 854.238281 259.871094 856.945312 262.578125 860.269531 262.578125 C 863.597656 262.578125 866.300781 259.871094 866.300781 256.542969 C 866.300781 253.21875 863.597656 250.511719 860.269531 250.511719 Z M 854.617188 257.71875 C 854.519531 257.460938 854.621094 257.179688 854.839844 257.035156 C 854.757812 257.210938 854.746094 257.429688 854.824219 257.644531 C 854.902344 257.855469 855.054688 258.011719 855.234375 258.09375 C 854.972656 258.128906 854.710938 257.976562 854.617188 257.71875 Z M 855.417969 256.523438 C 855.203125 256.574219 854.988281 256.5 854.847656 256.351562 C 854.8125 256.308594 854.78125 256.261719 854.753906 256.210938 C 854.738281 256.175781 854.726562 256.136719 854.714844 256.097656 C 854.640625 255.789062 854.828125 255.472656 855.140625 255.398438 C 855.152344 255.394531 855.167969 255.390625 855.183594 255.390625 C 855.101562 255.546875 855.074219 255.769531 855.132812 255.996094 C 855.1875 256.222656 855.3125 256.410156 855.457031 256.507812 C 855.445312 256.515625 855.429688 256.519531 855.417969 256.523438 Z M 855.125 254.605469 C 855.125 254.585938 855.121094 254.566406 855.121094 254.542969 C 855.117188 254.523438 855.117188 254.503906 855.117188 254.484375 C 855.121094 254.425781 855.128906 254.371094 855.148438 254.316406 C 855.15625 254.300781 855.160156 254.28125 855.167969 254.265625 C 855.183594 254.230469 855.203125 254.199219 855.226562 254.167969 C 855.234375 254.152344 855.246094 254.136719 855.257812 254.125 C 855.355469 254.011719 855.496094 253.9375 855.65625 253.925781 L 855.738281 255.082031 C 855.4375 255.101562 855.175781 254.890625 855.125 254.601562 Z M 855.714844 257.042969 C 855.691406 256.804688 855.804688 256.566406 856.027344 256.441406 L 856.621094 257.511719 C 856.417969 257.621094 856.179688 257.609375 855.996094 257.492188 C 855.980469 257.480469 855.964844 257.46875 855.949219 257.457031 C 855.886719 257.410156 855.832031 257.347656 855.789062 257.273438 C 855.75 257.199219 855.726562 257.121094 855.714844 257.042969 Z M 855.921875 258.808594 C 855.832031 258.691406 855.792969 258.550781 855.800781 258.414062 C 855.800781 258.375 855.804688 258.335938 855.816406 258.296875 C 855.847656 258.164062 855.921875 258.042969 856.039062 257.953125 C 856.054688 257.941406 856.066406 257.933594 856.078125 257.925781 C 856.066406 258.113281 856.132812 258.339844 856.285156 258.535156 C 856.433594 258.734375 856.628906 258.859375 856.816406 258.898438 C 856.804688 258.90625 856.792969 258.917969 856.78125 258.925781 C 856.511719 259.132812 856.128906 259.078125 855.921875 258.808594 Z M 856.375 260.414062 C 856.171875 260.207031 856.148438 259.890625 856.300781 259.65625 C 856.292969 259.859375 856.375 260.078125 856.542969 260.25 C 856.710938 260.421875 856.925781 260.507812 857.132812 260.503906 C 856.894531 260.652344 856.578125 260.621094 856.375 260.414062 Z M 857.40625 259.421875 C 857.359375 259.378906 857.320312 259.328125 857.289062 259.277344 C 857.160156 259.050781 857.183594 258.757812 857.367188 258.554688 L 858.269531 259.378906 C 858.085938 259.582031 857.796875 259.632812 857.558594 259.523438 C 857.503906 259.496094 857.453125 259.460938 857.40625 259.421875 Z M 857.996094 260.933594 C 857.976562 260.925781 857.960938 260.914062 857.945312 260.898438 C 857.894531 260.863281 857.847656 260.816406 857.8125 260.769531 C 857.71875 260.640625 857.679688 260.480469 857.703125 260.324219 C 857.707031 260.304688 857.710938 260.285156 857.714844 260.265625 C 857.734375 260.1875 857.765625 260.113281 857.816406 260.042969 C 857.828125 260.03125 857.835938 260.019531 857.847656 260.007812 C 857.886719 260.191406 858.015625 260.390625 858.214844 260.535156 C 858.414062 260.683594 858.636719 260.75 858.824219 260.734375 C 858.816406 260.746094 858.808594 260.761719 858.800781 260.773438 C 858.609375 261.027344 858.261719 261.09375 857.996094 260.933594 Z M 859.015625 262.199219 C 858.746094 262.089844 858.59375 261.8125 858.636719 261.535156 C 858.714844 261.726562 858.878906 261.894531 859.101562 261.980469 C 859.324219 262.070312 859.554688 262.058594 859.746094 261.976562 C 859.585938 262.207031 859.285156 262.304688 859.015625 262.199219 Z M 859.636719 261.011719 C 859.617188 261.003906 859.597656 260.996094 859.578125 260.988281 C 859.539062 260.972656 859.503906 260.949219 859.472656 260.925781 C 859.242188 260.753906 859.160156 260.441406 859.285156 260.175781 L 860.390625 260.695312 C 860.253906 260.984375 859.925781 261.117188 859.636719 261.011719 Z M 861.34375 261.671875 C 861.257812 261.972656 860.941406 262.148438 860.636719 262.058594 C 860.335938 261.96875 860.160156 261.652344 860.25 261.351562 C 860.253906 261.335938 860.257812 261.324219 860.265625 261.308594 C 860.359375 261.457031 860.535156 261.589844 860.757812 261.652344 C 860.976562 261.71875 861.195312 261.703125 861.355469 261.628906 C 861.351562 261.644531 861.347656 261.65625 861.34375 261.671875 Z M 862.355469 261.71875 C 862.335938 261.722656 862.316406 261.726562 862.296875 261.726562 C 862.257812 261.730469 862.214844 261.734375 862.171875 261.730469 C 862.089844 261.722656 862.011719 261.695312 861.941406 261.660156 C 861.871094 261.621094 861.808594 261.570312 861.757812 261.511719 C 861.660156 261.390625 861.605469 261.234375 861.617188 261.066406 L 862.835938 261.175781 C 862.8125 261.449219 862.613281 261.664062 862.355469 261.71875 Z M 864.78125 259.273438 C 864.730469 259.242188 864.667969 259.226562 864.605469 259.226562 C 864.378906 259.222656 864.1875 259.410156 864.136719 259.667969 C 864.25 259.53125 864.417969 259.445312 864.601562 259.449219 C 864.601562 259.449219 864.605469 259.449219 864.605469 259.449219 C 864.78125 259.453125 864.875 259.660156 864.773438 259.804688 C 864.597656 260.039062 864.402344 260.261719 864.1875 260.460938 C 864.128906 260.515625 864.070312 260.5625 864.003906 260.601562 C 863.621094 260.832031 863.125 260.792969 862.757812 260.53125 C 862.628906 260.4375 862.496094 260.355469 862.363281 260.335938 C 861.976562 260.273438 861.488281 260.65625 861.125 260.539062 C 860.753906 260.417969 860.585938 259.820312 860.242188 259.644531 C 859.898438 259.46875 859.3125 259.679688 859.003906 259.453125 C 858.691406 259.226562 858.714844 258.605469 858.441406 258.332031 C 858.167969 258.058594 857.546875 258.078125 857.320312 257.765625 C 857.09375 257.453125 857.308594 256.871094 857.132812 256.523438 C 856.957031 256.183594 856.359375 256.011719 856.238281 255.640625 C 856.121094 255.277344 856.507812 254.789062 856.445312 254.402344 C 856.417969 254.230469 856.292969 254.035156 856.167969 253.835938 C 855.945312 253.472656 855.988281 253.003906 856.285156 252.699219 C 856.5 252.476562 856.734375 252.269531 856.984375 252.085938 C 857.105469 251.996094 857.28125 252.074219 857.289062 252.226562 L 857.289062 252.230469 C 857.296875 252.417969 857.214844 252.585938 857.078125 252.703125 C 857.335938 252.644531 857.519531 252.445312 857.507812 252.222656 C 857.507812 252.15625 857.488281 252.097656 857.457031 252.042969 C 857.394531 251.929688 857.445312 251.78125 857.558594 251.714844 C 858.488281 251.1875 859.585938 250.921875 860.75 251.023438 C 863.589844 251.261719 865.789062 253.660156 865.8125 256.507812 C 865.820312 257.453125 865.601562 258.351562 865.191406 259.136719 C 865.113281 259.28125 864.929688 259.351562 864.78125 259.273438 Z M 856.613281 253.902344 C 856.667969 253.480469 856.652344 253.09375 856.5625 252.746094 C 856.882812 252.734375 857.152344 252.980469 857.164062 253.300781 C 857.179688 253.621094 856.933594 253.890625 856.613281 253.902344 Z M 857.550781 255.1875 C 857.683594 255.496094 857.535156 255.855469 857.226562 255.988281 C 857.191406 255.550781 857.039062 255.171875 856.75 254.859375 C 857.058594 254.730469 857.417969 254.875 857.550781 255.1875 Z M 858.503906 256.941406 C 858.714844 257.207031 858.671875 257.589844 858.40625 257.800781 C 858.277344 257.359375 858.03125 257.035156 857.644531 256.84375 C 857.910156 256.632812 858.292969 256.679688 858.503906 256.941406 Z M 859.996094 259.207031 C 859.789062 258.839844 859.46875 258.589844 859.023438 258.464844 C 859.230469 258.195312 859.613281 258.144531 859.878906 258.351562 C 860.148438 258.554688 860.199219 258.9375 859.996094 259.207031 Z M 861.941406 260.046875 C 861.625 259.78125 861.242188 259.640625 860.789062 259.640625 C 860.898438 259.324219 861.25 259.15625 861.566406 259.269531 C 861.886719 259.382812 862.050781 259.730469 861.941406 260.046875 Z M 864.136719 260.285156 C 863.738281 260.207031 863.332031 260.171875 862.917969 260.175781 C 862.945312 259.839844 863.242188 259.59375 863.582031 259.621094 C 863.917969 259.652344 864.164062 259.949219 864.136719 260.285156 Z M 857.382812 253.683594 C 857.644531 253.671875 857.890625 253.84375 857.964844 254.109375 C 858.035156 254.375 857.910156 254.648438 857.675781 254.773438 C 857.777344 254.605469 857.808594 254.386719 857.75 254.167969 C 857.691406 253.949219 857.550781 253.777344 857.382812 253.683594 Z M 858.65625 255.867188 C 858.800781 256.101562 858.761719 256.398438 858.574219 256.585938 C 858.621094 256.398438 858.589844 256.179688 858.46875 255.988281 C 858.347656 255.792969 858.164062 255.671875 857.972656 255.628906 C 858.222656 255.542969 858.507812 255.636719 858.65625 255.867188 Z M 859.617188 257.421875 C 859.460938 257.257812 859.253906 257.175781 859.0625 257.171875 C 859.289062 257.035156 859.585938 257.070312 859.777344 257.269531 C 859.96875 257.46875 859.988281 257.765625 859.839844 257.988281 C 859.847656 257.792969 859.773438 257.585938 859.617188 257.421875 Z M 860.96875 258.414062 C 860.777344 258.289062 860.5625 258.253906 860.371094 258.292969 C 860.5625 258.113281 860.859375 258.078125 861.089844 258.230469 C 861.320312 258.382812 861.40625 258.667969 861.3125 258.917969 C 861.277344 258.726562 861.15625 258.539062 860.96875 258.414062 Z M 862.628906 259.183594 C 862.433594 259.128906 862.234375 259.167969 862.078125 259.269531 C 862.195312 259.035156 862.449219 258.90625 862.6875 258.96875 C 862.929688 259.035156 863.082031 259.277344 863.0625 259.539062 C 862.980469 259.371094 862.828125 259.238281 862.628906 259.183594 Z M 863.230469 258.800781 C 863.324219 258.632812 863.539062 258.542969 863.757812 258.597656 C 863.976562 258.652344 864.125 258.835938 864.125 259.027344 C 864.042969 258.902344 863.898438 258.800781 863.71875 258.753906 C 863.539062 258.707031 863.363281 258.730469 863.230469 258.800781 Z M 862.015625 258.203125 C 861.828125 258.105469 861.617188 258.097656 861.4375 258.160156 C 861.605469 257.957031 861.886719 257.886719 862.117188 258.007812 C 862.347656 258.125 862.453125 258.398438 862.382812 258.652344 C 862.332031 258.46875 862.203125 258.300781 862.015625 258.203125 Z M 862.015625 258.203125 " fill-opacity="1" fill-rule="nonzero"/></g><g clip-path="url(#fdc49ebeb2)"><path fill="#000000" d="M 927.394531 67.855469 C 919.40625 67.8125 911.457031 66.777344 903.726562 64.765625 L 903.726562 67.855469 L 891.375 67.855469 L 891.375 6.105469 C 891.375 4.96875 894.140625 4.046875 897.550781 4.046875 C 900.960938 4.046875 903.726562 4.96875 903.726562 6.105469 L 903.726562 8.164062 C 911.039062 8.890625 918.269531 10.265625 925.335938 12.277344 C 932.746094 14.355469 943.101562 18.699219 953.125 23.601562 C 964.992188 29.402344 974.363281 34.800781 999.4375 34.921875 C 981.355469 55.855469 955.054688 67.878906 927.394531 67.855469 Z M 893.433594 74.027344 L 901.667969 74.027344 L 901.667969 269.464844 C 900.324219 269.53125 898.949219 269.570312 897.550781 269.570312 C 882.203125 269.570312 869.761719 265.421875 869.761719 260.304688 C 869.761719 255.65625 880.039062 251.808594 893.433594 251.148438 Z M 925.335938 260.304688 C 925.335938 264.464844 917.109375 267.984375 905.785156 269.15625 L 905.785156 251.460938 C 917.105469 252.628906 925.335938 256.144531 925.335938 260.304688 Z M 925.335938 260.304688 " fill-opacity="1" fill-rule="evenodd"/></g><g fill="#000000" fill-opacity="1"><g transform="translate(94.097307, 395.686569)"><g><path d="M -6.0625 -26.0625 C -5.21875 -22.84375 -5.015625 -19.691406 -5.453125 -16.609375 C -5.898438 -13.535156 -6.875 -10.726562 -8.375 -8.1875 C -9.875 -5.65625 -11.851562 -3.457031 -14.3125 -1.59375 C -16.78125 0.257812 -19.582031 1.597656 -22.71875 2.421875 L -22.84375 2.46875 C -25.988281 3.289062 -29.078125 3.5 -32.109375 3.09375 C -35.148438 2.6875 -37.972656 1.753906 -40.578125 0.296875 C -43.179688 -1.160156 -45.445312 -3.132812 -47.375 -5.625 C -49.300781 -8.125 -50.710938 -11.070312 -51.609375 -14.46875 C -52.140625 -16.507812 -52.460938 -18.421875 -52.578125 -20.203125 C -52.703125 -21.992188 -52.648438 -23.65625 -52.421875 -25.1875 C -52.203125 -26.726562 -51.828125 -28.191406 -51.296875 -29.578125 C -50.765625 -30.972656 -50.132812 -32.304688 -49.40625 -33.578125 L -40.6875 -29.28125 C -41.789062 -27.164062 -42.546875 -25.101562 -42.953125 -23.09375 C -43.359375 -21.09375 -43.269531 -18.984375 -42.6875 -16.765625 C -42.195312 -14.921875 -41.382812 -13.300781 -40.25 -11.90625 C -39.125 -10.519531 -37.785156 -9.429688 -36.234375 -8.640625 C -34.691406 -7.847656 -33.015625 -7.351562 -31.203125 -7.15625 C -29.390625 -6.96875 -27.539062 -7.117188 -25.65625 -7.609375 L -25.515625 -7.640625 C -23.628906 -8.140625 -21.929688 -8.925781 -20.421875 -10 C -18.910156 -11.070312 -17.671875 -12.320312 -16.703125 -13.75 C -15.742188 -15.1875 -15.101562 -16.785156 -14.78125 -18.546875 C -14.46875 -20.316406 -14.5625 -22.144531 -15.0625 -24.03125 C -15.71875 -26.539062 -16.734375 -28.539062 -18.109375 -30.03125 C -19.492188 -31.53125 -21.207031 -32.925781 -23.25 -34.21875 L -18.65625 -42 C -17.144531 -41.195312 -15.75 -40.316406 -14.46875 -39.359375 C -13.1875 -38.398438 -12.007812 -37.285156 -10.9375 -36.015625 C -9.863281 -34.753906 -8.921875 -33.3125 -8.109375 -31.6875 C -7.304688 -30.070312 -6.625 -28.195312 -6.0625 -26.0625 Z M -6.0625 -26.0625 "/></g></g></g><g fill="#000000" fill-opacity="1"><g transform="translate(81.592457, 347.18437)"><g><path d="M -45.671875 -2.984375 L -46.796875 -23.75 C -47.097656 -29.488281 -45.796875 -33.972656 -42.890625 -37.203125 C -40.453125 -39.941406 -37.070312 -41.429688 -32.75 -41.671875 L -32.609375 -41.671875 C -28.941406 -41.867188 -25.898438 -41.128906 -23.484375 -39.453125 C -21.078125 -37.785156 -19.253906 -35.535156 -18.015625 -32.703125 L -2.40625 -44.671875 L -1.78125 -33 L -15.796875 -22.5 L -15.359375 -14.65625 L -0.828125 -15.4375 L -0.296875 -5.4375 Z M -24.71875 -24.28125 C -24.851562 -26.738281 -25.535156 -28.59375 -26.765625 -29.84375 C -28.003906 -31.101562 -29.597656 -31.679688 -31.546875 -31.578125 L -31.671875 -31.578125 C -33.835938 -31.453125 -35.421875 -30.664062 -36.421875 -29.21875 C -37.429688 -27.78125 -37.875 -25.835938 -37.75 -23.390625 L -37.203125 -13.46875 L -24.171875 -14.171875 Z M -24.71875 -24.28125 "/></g></g></g><g fill="#000000" fill-opacity="1"><g transform="translate(79.335798, 297.975697)"><g><path d="M -44.21875 -11.8125 L -39.390625 -45.75 L -30.59375 -44.5 L -34.015625 -20.390625 L -24.890625 -19.078125 L -21.875 -40.28125 L -13.0625 -39.03125 L -16.078125 -17.828125 L -6.625 -16.484375 L -3.15625 -40.90625 L 5.640625 -39.65625 L 0.765625 -5.40625 Z M -44.21875 -11.8125 "/></g></g></g><g fill="#000000" fill-opacity="1"><g transform="translate(85.607393, 252.688025)"><g><path d="M -35.953125 -35.265625 L -32.828125 -43.9375 L 16.8125 -46.796875 L 13.28125 -36.96875 L 2.28125 -36.5 L -4.21875 -18.40625 L 3.96875 -11.0625 L 0.53125 -1.46875 Z M -7.21875 -36.125 L -23.15625 -35.4375 L -11.3125 -24.765625 Z M -7.21875 -36.125 "/></g></g></g><g fill="#000000" fill-opacity="1"><g transform="translate(104.332291, 202.595679)"><g><path d="M -22.625 -32.5 L -29.8125 -20.6875 L -37.6875 -25.484375 L -18.140625 -57.65625 L -10.265625 -52.859375 L -17.4375 -41.046875 L 13.515625 -22.25 L 8.328125 -13.703125 Z M -22.625 -32.5 "/></g></g></g><g fill="#000000" fill-opacity="1"><g transform="translate(127.630473, 164.567547)"><g><path d="M -30.15625 -34.4375 L -7.234375 -59.9375 L -0.625 -53.984375 L -16.90625 -35.875 L -10.046875 -29.71875 L 4.28125 -45.640625 L 10.890625 -39.703125 L -3.4375 -23.78125 L 3.671875 -17.390625 L 20.171875 -35.734375 L 26.78125 -29.796875 L 3.640625 -4.0625 Z M -30.15625 -34.4375 "/></g></g></g><g fill="#000000" fill-opacity="1"><g transform="translate(159.743902, 130.474735)"><g/></g></g><g fill="#000000" fill-opacity="1"><g transform="translate(176.503744, 115.178871)"><g><path d="M -5.359375 -50.09375 L 2.5625 -54.8125 L 42.734375 -25.453125 L 33.75 -20.09375 L 24.953125 -26.71875 L 8.453125 -16.890625 L 10.09375 -6.015625 L 1.34375 -0.796875 Z M 17.375 -32.484375 L 4.640625 -42.078125 L 7 -26.3125 Z M 17.375 -32.484375 "/></g></g></g><g fill="#000000" fill-opacity="1"><g transform="translate(223.897847, 88.69635)"><g/></g></g><g fill="#000000" fill-opacity="1"><g transform="translate(244.6052, 79.390081)"><g><path d="M 26.828125 -5.234375 C 23.378906 -4.453125 20.097656 -4.3125 16.984375 -4.8125 C 13.878906 -5.320312 11.070312 -6.359375 8.5625 -7.921875 C 6.0625 -9.484375 3.925781 -11.53125 2.15625 -14.0625 C 0.394531 -16.59375 -0.859375 -19.503906 -1.609375 -22.796875 L -1.625 -22.90625 C -2.34375 -26.082031 -2.429688 -29.1875 -1.890625 -32.21875 C -1.347656 -35.25 -0.28125 -38.039062 1.3125 -40.59375 C 2.90625 -43.15625 4.976562 -45.351562 7.53125 -47.1875 C 10.09375 -49.019531 13.0625 -50.316406 16.4375 -51.078125 C 18.425781 -51.523438 20.265625 -51.789062 21.953125 -51.875 C 23.640625 -51.96875 25.238281 -51.921875 26.75 -51.734375 C 28.257812 -51.546875 29.710938 -51.207031 31.109375 -50.71875 C 32.503906 -50.238281 33.878906 -49.632812 35.234375 -48.90625 L 30.765625 -40.125 C 29.753906 -40.664062 28.757812 -41.113281 27.78125 -41.46875 C 26.8125 -41.820312 25.832031 -42.085938 24.84375 -42.265625 C 23.863281 -42.441406 22.820312 -42.515625 21.71875 -42.484375 C 20.613281 -42.453125 19.425781 -42.296875 18.15625 -42.015625 C 16.382812 -41.609375 14.8125 -40.863281 13.4375 -39.78125 C 12.0625 -38.707031 10.929688 -37.414062 10.046875 -35.90625 C 9.171875 -34.40625 8.59375 -32.742188 8.3125 -30.921875 C 8.03125 -29.109375 8.101562 -27.25 8.53125 -25.34375 L 8.5625 -25.203125 C 9.007812 -23.179688 9.753906 -21.390625 10.796875 -19.828125 C 11.835938 -18.273438 13.101562 -17 14.59375 -16 C 16.082031 -15.007812 17.71875 -14.347656 19.5 -14.015625 C 21.289062 -13.679688 23.175781 -13.738281 25.15625 -14.1875 C 28.78125 -15 31.644531 -16.570312 33.75 -18.90625 L 32.328125 -25.25 L 22.5 -23.046875 L 20.59375 -31.453125 L 39.859375 -35.78125 L 44.203125 -16.53125 C 42.347656 -14.082031 40.003906 -11.816406 37.171875 -9.734375 C 34.335938 -7.648438 30.890625 -6.148438 26.828125 -5.234375 Z M 26.828125 -5.234375 "/></g></g></g><g fill="#000000" fill-opacity="1"><g transform="translate(296.168984, 67.973396)"><g><path d="M 20.859375 -45.84375 L 30.078125 -45.890625 L 49.734375 -0.1875 L 39.28125 -0.15625 L 35.078125 -10.328125 L 15.859375 -10.25 L 11.75 -0.046875 L 1.5625 0 Z M 31.46875 -19.140625 L 25.390625 -33.859375 L 19.390625 -19.09375 Z M 31.46875 -19.140625 "/></g></g></g><g fill="#000000" fill-opacity="1"><g transform="translate(349.207724, 67.681307)"><g><path d="M 15.40625 -43.078125 L 25.921875 -40.6875 L 33.296875 -19.328125 L 49.21875 -35.390625 L 59.734375 -32.984375 L 49.640625 11.3125 L 39.953125 9.09375 L 46.546875 -19.84375 L 29.75 -3.75 L 29.5 -3.796875 L 21.421875 -25.34375 L 14.875 3.390625 L 5.3125 1.21875 Z M 15.40625 -43.078125 "/></g></g></g><g fill="#000000" fill-opacity="1"><g transform="translate(405.825717, 81.488514)"><g><path d="M 24.171875 -38.859375 L 55.234375 -24.359375 L 51.46875 -16.296875 L 29.40625 -26.59375 L 25.5 -18.25 L 44.90625 -9.1875 L 41.140625 -1.125 L 21.734375 -10.1875 L 17.703125 -1.53125 L 40.0625 8.90625 L 36.296875 16.953125 L 4.9375 2.3125 Z M 24.171875 -38.859375 "/></g></g></g><g fill="#000000" fill-opacity="1"><g transform="translate(447.743135, 102.255375)"><g><path d="M 28.265625 -34.234375 L 28.984375 -35.3125 L 38.625 -28.9375 L 37.90625 -27.859375 L 19.578125 -5.59375 L 15.015625 -8.59375 Z M 10.109375 -5.765625 L 18.890625 0.015625 L 13.171875 8.6875 L 4.390625 2.90625 Z M 10.109375 -5.765625 "/></g></g></g><path fill="#000000" d="M 477.273438 99.917969 C 480.035156 101.242188 482.746094 102.605469 485.40625 104 L 484.007812 106.65625 C 481.382812 105.273438 478.707031 103.929688 475.976562 102.621094 Z M 488.046875 105.410156 C 490.730469 106.867188 493.363281 108.359375 495.941406 109.886719 L 494.414062 112.46875 C 491.867188 110.957031 489.269531 109.484375 486.617188 108.046875 Z M 498.515625 111.4375 C 501.117188 113.03125 503.664062 114.660156 506.152344 116.332031 L 504.480469 118.820312 C 502.027344 117.175781 499.519531 115.566406 496.953125 113.996094 Z M 508.640625 118.03125 C 511.148438 119.761719 513.589844 121.539062 515.976562 123.351562 L 514.160156 125.738281 C 511.808594 123.949219 509.402344 122.203125 506.933594 120.496094 Z M 518.367188 125.203125 C 520.757812 127.082031 523.085938 129.003906 525.355469 130.96875 L 523.390625 133.234375 C 521.160156 131.300781 518.867188 129.410156 516.511719 127.558594 Z M 527.625 132.96875 C 529.886719 134.996094 532.085938 137.066406 534.222656 139.183594 L 532.113281 141.3125 C 530.011719 139.234375 527.851562 137.195312 525.625 135.203125 Z M 536.355469 141.332031 C 538.472656 143.503906 540.527344 145.71875 542.515625 147.980469 L 540.261719 149.960938 C 538.308594 147.738281 536.289062 145.558594 534.207031 143.425781 Z M 544.492188 150.273438 C 546.449219 152.585938 548.34375 154.941406 550.167969 157.347656 L 547.78125 159.160156 C 545.988281 156.800781 544.128906 154.484375 542.203125 152.210938 Z M 551.976562 159.773438 C 553.761719 162.214844 555.480469 164.703125 557.132812 167.234375 L 554.621094 168.871094 C 553 166.382812 551.3125 163.941406 549.558594 161.542969 Z M 558.761719 169.785156 C 560.363281 172.34375 561.898438 174.949219 563.367188 177.601562 L 560.746094 179.054688 C 559.304688 176.449219 557.792969 173.890625 556.21875 171.375 Z M 564.808594 180.257812 C 566.222656 182.921875 567.570312 185.628906 568.851562 188.378906 L 566.132812 189.644531 C 564.875 186.941406 563.550781 184.28125 562.160156 181.664062 Z M 570.101562 191.128906 C 571.324219 193.878906 572.480469 196.675781 573.574219 199.511719 L 570.773438 200.589844 C 569.699219 197.796875 568.5625 195.050781 567.359375 192.347656 Z M 574.632812 202.335938 C 575.667969 205.15625 576.636719 208.023438 577.542969 210.929688 L 574.683594 211.824219 C 573.789062 208.964844 572.835938 206.144531 571.816406 203.367188 Z M 578.417969 213.8125 C 579.269531 216.691406 580.058594 219.613281 580.789062 222.578125 L 577.875 223.292969 C 577.15625 220.375 576.378906 217.496094 575.542969 214.660156 Z M 581.484375 225.496094 C 582.15625 228.425781 582.773438 231.390625 583.332031 234.394531 L 580.386719 234.945312 C 579.835938 231.980469 579.226562 229.054688 578.5625 226.171875 Z M 583.859375 237.339844 C 584.367188 240.296875 584.820312 243.289062 585.21875 246.320312 L 582.246094 246.710938 C 581.851562 243.71875 581.40625 240.765625 580.902344 237.847656 Z M 585.589844 249.296875 C 585.941406 252.261719 586.238281 255.265625 586.484375 258.300781 L 583.496094 258.542969 C 583.253906 255.542969 582.957031 252.578125 582.609375 249.648438 Z M 585.589844 249.296875 " fill-opacity="1" fill-rule="nonzero"/><path fill="#000000" d="M 583.746094 260.421875 L 586.3125 251.75 L 589.1875 252.601562 L 586.621094 261.273438 Z M 587.199219 248.867188 L 589.929688 240.324219 L 592.785156 241.238281 L 590.054688 249.78125 Z M 590.902344 237.398438 C 591.894531 234.457031 592.886719 231.617188 593.878906 228.878906 L 596.695312 229.902344 C 595.714844 232.617188 594.730469 235.4375 593.746094 238.355469 Z M 594.921875 226.035156 C 596.011719 223.105469 597.101562 220.296875 598.191406 217.613281 L 600.96875 218.742188 C 599.890625 221.398438 598.8125 224.179688 597.730469 227.082031 Z M 599.316406 214.890625 C 600.542969 211.960938 601.773438 209.191406 603 206.574219 L 605.714844 207.847656 C 604.503906 210.425781 603.292969 213.160156 602.082031 216.050781 Z M 604.324219 203.816406 C 605.730469 200.953125 607.136719 198.289062 608.542969 195.828125 L 611.148438 197.320312 C 609.769531 199.722656 608.394531 202.332031 607.015625 205.140625 Z M 610.117188 193.167969 C 611.828125 190.363281 613.539062 187.859375 615.253906 185.648438 L 617.621094 187.488281 C 615.976562 189.609375 614.328125 192.023438 612.675781 194.726562 Z M 617.234375 183.234375 C 619.507812 180.613281 621.792969 178.503906 624.085938 176.90625 L 625.796875 179.367188 C 623.707031 180.820312 621.609375 182.765625 619.5 185.199219 Z M 626.824219 175.25 C 629.960938 173.628906 633.117188 172.953125 636.285156 173.226562 L 636.027344 176.210938 C 633.433594 175.988281 630.824219 176.558594 628.199219 177.914062 Z M 639.507812 173.832031 C 642.304688 174.640625 645.085938 176.195312 647.84375 178.496094 L 645.921875 180.796875 C 643.488281 178.769531 641.070312 177.40625 638.671875 176.710938 Z M 650.132812 180.574219 C 652.121094 182.535156 654.101562 184.890625 656.082031 187.636719 L 653.648438 189.386719 C 651.769531 186.777344 649.894531 184.554688 648.027344 182.710938 Z M 657.851562 190.199219 C 659.402344 192.546875 660.953125 195.136719 662.503906 197.96875 L 659.871094 199.40625 C 658.363281 196.648438 656.855469 194.128906 655.351562 191.855469 Z M 663.949219 200.6875 C 665.265625 203.226562 666.582031 205.945312 667.894531 208.839844 L 665.167969 210.078125 C 663.871094 207.230469 662.582031 204.5625 661.289062 202.070312 Z M 669.113281 211.566406 C 670.269531 214.214844 671.429688 217.003906 672.585938 219.929688 L 669.800781 221.03125 C 668.652344 218.140625 667.507812 215.382812 666.363281 212.769531 Z M 673.703125 222.792969 C 674.746094 225.507812 675.789062 228.332031 676.828125 231.269531 L 674.003906 232.273438 C 672.972656 229.359375 671.9375 226.558594 670.90625 223.871094 Z M 677.804688 234.050781 C 678.761719 236.8125 679.714844 239.667969 680.671875 242.621094 L 677.820312 243.542969 C 676.871094 240.613281 675.921875 237.773438 674.96875 235.03125 Z M 681.589844 245.476562 L 684.238281 254.078125 L 681.375 254.960938 L 678.722656 246.363281 Z M 685.101562 256.980469 L 686.105469 260.425781 L 683.226562 261.265625 L 682.222656 257.820312 Z M 685.101562 256.980469 " fill-opacity="1" fill-rule="nonzero"/><path fill="#000000" d="M 683.292969 260.246094 C 684.570312 257.328125 685.84375 254.554688 687.121094 251.929688 L 689.816406 253.242188 C 688.558594 255.832031 687.300781 258.566406 686.042969 261.445312 Z M 688.4375 249.269531 C 689.875 246.433594 691.308594 243.777344 692.742188 241.308594 L 695.335938 242.8125 C 693.929688 245.234375 692.523438 247.835938 691.117188 250.621094 Z M 694.359375 238.605469 C 696.070312 235.824219 697.78125 233.304688 699.496094 231.039062 L 701.886719 232.851562 C 700.230469 235.039062 698.574219 237.476562 696.914062 240.175781 Z M 701.375 228.664062 C 703.519531 226.074219 705.671875 223.882812 707.828125 222.089844 L 709.746094 224.398438 C 707.730469 226.070312 705.710938 228.128906 703.6875 230.578125 Z M 710.378906 220.160156 C 713.265625 218.1875 716.167969 216.921875 719.085938 216.363281 L 719.648438 219.308594 C 717.140625 219.789062 714.613281 220.898438 712.070312 222.636719 Z M 722.316406 216.035156 C 725.4375 215.996094 728.542969 216.765625 731.636719 218.335938 L 730.277344 221.011719 C 727.621094 219.660156 724.980469 219 722.351562 219.035156 Z M 734.34375 219.921875 C 736.703125 221.488281 739.050781 223.523438 741.394531 226.035156 L 739.199219 228.082031 C 737.019531 225.742188 734.847656 223.855469 732.6875 222.421875 Z M 743.441406 228.355469 C 745.25 230.515625 747.058594 232.960938 748.863281 235.691406 L 746.359375 237.34375 C 744.617188 234.707031 742.878906 232.351562 741.144531 230.28125 Z M 750.492188 238.242188 C 752 240.667969 753.503906 243.296875 755.007812 246.125 L 752.359375 247.53125 C 750.886719 244.761719 749.414062 242.195312 747.945312 239.824219 Z M 756.441406 248.882812 C 757.738281 251.4375 759.035156 254.140625 760.332031 256.992188 L 757.601562 258.234375 C 756.324219 255.417969 755.046875 252.753906 753.765625 250.242188 Z M 761.609375 259.847656 L 761.78125 260.242188 L 759.035156 261.449219 L 758.863281 261.050781 Z M 761.609375 259.847656 " fill-opacity="1" fill-rule="nonzero"/><path fill="#000000" d="M 760.40625 259.347656 L 769.402344 259.347656 L 769.402344 262.34375 L 760.40625 262.34375 M 772.402344 259.347656 L 781.398438 259.347656 L 781.398438 262.34375 L 772.402344 262.34375 M 784.394531 259.347656 L 793.390625 259.347656 L 793.390625 262.34375 L 784.394531 262.34375 M 796.390625 259.347656 L 805.386719 259.347656 L 805.386719 262.34375 L 796.390625 262.34375 M 808.382812 259.347656 L 817.378906 259.347656 L 817.378906 262.34375 L 808.382812 262.34375 M 820.378906 259.347656 L 829.375 259.347656 L 829.375 262.34375 L 820.378906 262.34375 M 832.371094 259.347656 L 841.367188 259.347656 L 841.367188 262.34375 L 832.371094 262.34375 M 844.367188 259.347656 L 853.363281 259.347656 L 853.363281 262.34375 L 844.367188 262.34375 " fill-opacity="1" fill-rule="nonzero"/><g clip-path="url(#d8e30c35e1)"><path fill="#000000" d="M 94.511719 336.609375 C 94.78125 342.035156 95.253906 347.566406 95.914062 353.054688 L 95.929688 353.1875 C 96.179688 355.476562 96.5 357.707031 96.808594 359.867188 L 96.855469 360.230469 C 97.632812 365.398438 98.632812 370.710938 99.910156 376.453125 C 99.945312 376.648438 99.984375 376.839844 100.027344 377.03125 C 100.140625 377.597656 100.261719 378.125 100.378906 378.617188 C 101.175781 381.976562 101.886719 384.777344 102.621094 387.445312 L 102.675781 387.636719 C 103.070312 389.117188 103.484375 390.558594 103.90625 391.921875 C 105.390625 396.996094 107.070312 402.066406 108.894531 407 L 109.007812 407.324219 C 109.703125 409.214844 110.414062 411.007812 111.019531 412.507812 C 112.496094 416.246094 114.078125 419.929688 115.691406 423.410156 C 120.191406 433.304688 125.582031 443.179688 131.679688 452.703125 C 132.738281 454.328125 133.6875 455.761719 134.59375 457.109375 C 134.679688 457.253906 134.769531 457.394531 134.863281 457.53125 C 137.933594 462.03125 140.839844 466.023438 143.746094 469.730469 C 144.359375 470.566406 145.039062 471.433594 145.8125 472.382812 C 152.613281 480.933594 160.050781 489.050781 167.914062 496.515625 L 168.261719 496.828125 C 171.023438 499.480469 173.9375 502.113281 177.164062 504.871094 C 182.4375 509.394531 187.539062 513.410156 192.757812 517.144531 C 195.640625 519.238281 198.542969 521.238281 201.355469 523.0625 C 201.699219 523.328125 202.0625 523.5625 202.441406 523.769531 C 203.136719 524.230469 203.898438 524.726562 204.707031 525.230469 C 205.03125 525.46875 205.371094 525.683594 205.726562 525.875 C 212.261719 529.964844 218.898438 533.6875 225.460938 536.949219 C 232.128906 540.308594 239.234375 543.433594 246.539062 546.222656 C 246.992188 546.398438 247.5 546.59375 248.011719 546.789062 C 248.496094 546.976562 248.984375 547.160156 249.472656 547.351562 C 249.648438 547.421875 249.828125 547.484375 250.007812 547.542969 C 259.691406 551.066406 269.632812 553.96875 279.5625 556.167969 C 282.335938 556.800781 285.34375 557.414062 288.699219 558.023438 C 302.597656 560.5625 316.9375 561.847656 331.320312 561.847656 C 335.804688 561.847656 340.34375 561.71875 344.808594 561.464844 C 346.746094 561.367188 348.695312 561.222656 350.683594 561.070312 L 350.898438 561.054688 C 363.675781 560 376.378906 557.914062 388.652344 554.859375 C 388.914062 554.800781 389.171875 554.734375 389.421875 554.667969 L 389.597656 554.621094 L 389.78125 554.578125 C 393.828125 553.546875 397.519531 552.511719 401.074219 551.414062 L 401.191406 551.378906 C 401.480469 551.292969 401.859375 551.179688 402.285156 551.027344 C 404.441406 550.351562 406.65625 549.625 409.058594 548.804688 C 420.679688 544.761719 432.050781 539.777344 442.890625 533.976562 C 444.304688 533.242188 445.65625 532.511719 446.910156 531.796875 C 451.035156 529.503906 455.273438 526.949219 459.507812 524.203125 C 460.351562 523.675781 461.199219 523.121094 462.023438 522.554688 C 470.058594 517.269531 477.925781 511.34375 485.40625 504.941406 C 488.703125 502.105469 491.957031 499.15625 495.101562 496.164062 L 495.15625 496.113281 C 495.96875 495.324219 496.78125 494.539062 497.597656 493.699219 C 502.324219 489.085938 506.925781 484.152344 511.273438 479.019531 C 511.414062 478.871094 511.546875 478.71875 511.675781 478.5625 C 514.226562 475.625 516.789062 472.476562 519.945312 468.390625 C 520.132812 468.148438 520.308594 467.898438 520.472656 467.636719 C 521.285156 466.617188 522.011719 465.628906 522.6875 464.699219 C 525.191406 461.292969 527.742188 457.601562 530.238281 453.765625 C 531.292969 452.15625 532.425781 450.359375 533.6875 448.296875 C 537.976562 441.304688 541.933594 434.015625 545.4375 426.652344 C 545.496094 426.527344 545.554688 426.402344 545.605469 426.277344 C 547.519531 422.257812 549.3125 418.183594 550.9375 414.152344 C 551.46875 412.875 551.964844 411.625 552.410156 410.433594 C 553.769531 406.980469 555.019531 403.546875 556.125 400.222656 C 560.054688 388.539062 563.082031 376.433594 565.121094 364.257812 C 565.742188 360.609375 566.277344 356.914062 566.75 352.984375 C 566.824219 352.40625 566.882812 351.800781 566.941406 351.1875 C 567.367188 347.441406 567.699219 343.625 567.925781 339.839844 C 568.246094 335.023438 568.410156 329.929688 568.410156 324.757812 C 568.410156 317.648438 568.085938 310.4375 567.441406 303.320312 C 567.15625 299.976562 566.761719 296.445312 566.269531 292.859375 L 566.246094 292.667969 C 565.945312 290.398438 565.632812 288.328125 565.296875 286.34375 C 564.484375 281.34375 563.511719 276.335938 562.394531 271.460938 C 561.105469 265.859375 559.652344 260.4375 558.074219 255.335938 C 557.707031 254.132812 557.246094 252.613281 556.730469 251.097656 L 556.664062 250.886719 C 555.4375 247.074219 554.015625 243.101562 552.320312 238.742188 C 551.570312 236.816406 550.820312 234.957031 550.085938 233.226562 C 546.589844 224.859375 542.488281 216.488281 537.898438 208.367188 C 537.832031 208.238281 537.765625 208.105469 537.691406 207.976562 C 535.335938 203.796875 532.832031 199.6875 530.253906 195.761719 C 530.035156 195.398438 529.828125 195.089844 529.671875 194.851562 L 529.519531 194.625 L 529.472656 194.550781 C 523.546875 185.546875 517.015625 176.957031 510.0625 169.019531 C 505.8125 164.101562 501.164062 159.203125 496.277344 154.5 C 494.386719 152.632812 492.441406 150.808594 490.34375 148.925781 C 481.316406 140.722656 471.40625 133.070312 460.933594 126.214844 C 459.207031 125.082031 457.664062 124.101562 456.226562 123.234375 C 418.804688 99.960938 375.613281 87.660156 331.324219 87.660156 C 295.757812 87.660156 261.574219 95.351562 229.722656 110.515625 L 229.371094 110.671875 C 223.285156 113.550781 217.265625 116.742188 211.476562 120.15625 L 211.257812 120.292969 C 208.484375 121.910156 206.183594 123.320312 204.085938 124.6875 C 203.761719 124.867188 203.449219 125.070312 203.152344 125.289062 C 202.152344 125.917969 201.082031 126.621094 199.765625 127.507812 C 194.683594 130.886719 189.546875 134.617188 184.53125 138.574219 L 184.460938 138.628906 L 183.078125 139.742188 L 181.804688 140.769531 L 181.640625 140.902344 C 181.421875 141.085938 181.199219 141.265625 180.980469 141.449219 C 180.542969 141.804688 180.105469 142.167969 179.675781 142.542969 C 171.203125 149.5625 163.125 157.300781 155.664062 165.550781 C 153.113281 168.332031 150.605469 171.226562 148.253906 174.113281 L 148.035156 174.378906 C 147.179688 175.417969 146.324219 176.460938 145.492188 177.503906 C 141.953125 181.960938 138.523438 186.632812 135.273438 191.40625 L 135.105469 191.640625 C 132.160156 195.964844 129.316406 200.476562 126.644531 205.046875 C 125.945312 206.203125 125.371094 207.195312 124.867188 208.140625 L 124.792969 208.269531 C 122.054688 213.074219 119.488281 218.011719 117.160156 222.9375 L 117.121094 223.023438 L 117.117188 223.023438 L 116.660156 223.972656 C 116.183594 224.964844 115.703125 225.953125 115.222656 226.988281 C 115.109375 227.242188 115.003906 227.496094 114.914062 227.757812 C 113.289062 231.398438 111.898438 234.726562 110.660156 237.914062 L 110.546875 238.226562 C 108.679688 242.976562 107.042969 247.550781 105.550781 252.203125 C 104.398438 255.726562 103.277344 259.542969 102.136719 263.820312 C 101.246094 267.15625 100.445312 270.492188 99.769531 273.726562 L 99.734375 273.914062 C 97.703125 283.011719 96.230469 292.40625 95.347656 301.84375 C 94.964844 305.640625 94.707031 309.171875 94.558594 312.570312 C 94.359375 316.210938 94.261719 319.78125 94.257812 323.472656 C 94.230469 323.972656 94.230469 324.414062 94.230469 324.753906 C 94.230469 328.507812 94.320312 332.335938 94.507812 336.445312 Z M 141.789062 452.808594 L 141.789062 452.785156 C 140.753906 451.261719 139.746094 449.738281 138.738281 448.1875 C 132.960938 439.160156 127.769531 429.714844 123.292969 419.878906 C 123.566406 419.929688 123.8125 419.976562 124.082031 420.050781 C 132.664062 422.191406 140.089844 430.96875 142.207031 440.707031 L 142.207031 440.730469 C 142.625 442.652344 142.820312 444.59375 142.792969 446.535156 C 142.773438 448.800781 142.402344 450.914062 141.789062 452.785156 C 144.542969 456.84375 147.394531 460.800781 150.421875 464.664062 C 147.394531 460.800781 144.539062 456.84375 141.789062 452.808594 Z M 300.328125 520.429688 C 303.28125 512.789062 313.324219 507.460938 324.574219 508.816406 C 335.390625 510.085938 343.410156 516.953125 344.761719 524.484375 C 345.023438 525.953125 345.058594 527.441406 344.785156 528.921875 C 343.09375 538.03125 332.140625 543.460938 320.078125 542.316406 C 308.019531 541.152344 298.660156 533.460938 299.492188 523.96875 C 299.597656 522.746094 299.886719 521.5625 300.328125 520.429688 Z M 251.117188 490.058594 C 253.800781 481.324219 263.707031 475.554688 275.160156 477.285156 C 286.175781 478.921875 294.746094 486.878906 296.59375 495.691406 C 296.953125 497.402344 297.085938 499.144531 296.902344 500.878906 C 295.78125 511.578125 284.863281 518.070312 272.351562 516.371094 C 259.839844 514.652344 249.9375 505.074219 250.414062 494.117188 C 250.476562 492.707031 250.71875 491.351562 251.117188 490.058594 Z M 198.34375 453.976562 C 200.855469 444.492188 210.332031 438.445312 221.5 440.421875 C 232.238281 442.304688 240.855469 451.042969 242.917969 460.828125 C 243.3125 462.722656 243.492188 464.65625 243.367188 466.585938 C 242.578125 478.503906 231.867188 485.792969 219.457031 483.585938 C 207.039062 481.363281 197.316406 470.34375 197.699219 458.382812 C 197.75 456.847656 197.972656 455.375 198.34375 453.976562 Z M 152.246094 416.050781 C 154.6875 406.214844 163.480469 400 173.894531 402 C 183.90625 403.90625 192.050781 412.984375 193.984375 423.304688 C 194.359375 425.296875 194.523438 427.332031 194.402344 429.378906 C 193.65625 442.011719 183.351562 449.832031 171.632812 447.335938 C 159.898438 444.828125 151.0625 433.042969 151.589844 420.625 C 151.660156 419.027344 151.886719 417.503906 152.246094 416.050781 Z M 173.734375 490.460938 L 173.683594 490.4375 C 166.035156 483.183594 158.90625 475.386719 152.335938 467.125 C 155.359375 460.484375 162.640625 456.820312 171.371094 458.6875 C 181.160156 460.78125 189.496094 469.214844 191.957031 478.386719 C 192.421875 480.207031 192.671875 482.050781 192.671875 483.871094 C 192.621094 491.152344 188.609375 496.414062 182.609375 498.503906 C 179.5625 495.894531 176.636719 493.261719 173.734375 490.460938 Z M 209.738281 518.496094 L 209.636719 518.421875 C 208.554688 517.855469 207.519531 517.191406 206.539062 516.429688 L 206.417969 516.355469 C 203.441406 514.4375 200.515625 512.421875 197.636719 510.332031 C 197.539062 509.714844 197.492188 509.101562 197.464844 508.460938 C 197.417969 507.183594 197.539062 505.953125 197.832031 504.773438 C 199.628906 496.679688 208.433594 491.519531 219.253906 493.460938 C 229.605469 495.304688 238.214844 502.929688 240.675781 511.09375 C 241.167969 512.695312 241.410156 514.339844 241.386719 515.964844 C 241.265625 522.996094 236.324219 527.890625 229.191406 529.441406 C 222.5 526.117188 216.035156 522.457031 209.738281 518.496094 Z M 281.375 547.984375 C 271.492188 545.792969 261.898438 542.964844 252.550781 539.546875 L 252.527344 539.546875 C 251.519531 539.152344 250.535156 538.785156 249.527344 538.394531 L 249.503906 538.148438 C 249.480469 537.066406 249.625 536.007812 249.921875 535.023438 C 251.914062 528.136719 261.011719 523.488281 271.910156 524.964844 C 282.335938 526.367188 290.648438 532.734375 292.738281 539.449219 C 293.15625 540.777344 293.328125 542.105469 293.230469 543.40625 C 293.03125 545.894531 291.953125 548.054688 290.203125 549.777344 C 287.226562 549.238281 284.277344 548.648438 281.375 547.984375 Z M 382.277344 547.765625 C 371.84375 550.144531 361.140625 551.800781 350.210938 552.703125 L 350.1875 552.703125 C 348.242188 552.851562 346.277344 553 344.335938 553.097656 C 343.695312 551.625 343.519531 550 343.839844 548.253906 C 344.039062 547.269531 344.382812 546.3125 344.898438 545.375 C 348.242188 539.152344 358.226562 534.507812 368.902344 535.441406 C 378.515625 536.226562 385.378906 541.171875 386.730469 546.703125 C 385.25 547.074219 383.765625 547.425781 382.277344 547.765625 Z M 102.929688 312.972656 C 103.078125 309.507812 103.347656 306.039062 103.695312 302.621094 C 104.554688 293.398438 105.980469 284.347656 107.972656 275.472656 C 110.851562 278.863281 112.71875 283.734375 113.015625 289.292969 C 113.480469 287.792969 113.851562 286.21875 114.097656 284.59375 C 115.203125 277.242188 113.582031 270.503906 110.238281 265.980469 C 111.246094 262.191406 112.324219 258.453125 113.53125 254.765625 C 115.03125 250.09375 116.679688 245.519531 118.476562 240.96875 L 118.476562 240.945312 C 119.828125 237.453125 121.304688 233.984375 122.828125 230.589844 C 122.949219 231.375 123 232.164062 123 233 C 123.539062 231.574219 123.984375 230.074219 124.328125 228.550781 C 124.476562 227.910156 124.597656 227.273438 124.671875 226.65625 L 124.695312 226.605469 C 126.984375 221.761719 129.441406 217.039062 132.074219 212.417969 L 132.097656 212.390625 C 132.105469 212.375 132.117188 212.359375 132.125 212.34375 C 132.1875 212.042969 132.230469 211.746094 132.300781 211.441406 C 132.671875 209.925781 133.171875 208.457031 133.785156 207.046875 C 137.957031 197.496094 147.398438 190.804688 156.808594 191.246094 C 165.851562 191.675781 171.941406 198.714844 171.953125 208.15625 C 172.601562 206.726562 173.136719 205.242188 173.523438 203.710938 C 176.558594 191.785156 170.0625 182.179688 159.292969 181.714844 C 156.84375 181.609375 154.390625 181.996094 152.019531 182.761719 C 152.027344 182.753906 152.035156 182.742188 152.042969 182.734375 C 152.925781 181.628906 153.835938 180.523438 154.746094 179.414062 C 157.035156 176.609375 159.417969 173.859375 161.878906 171.175781 C 169.082031 163.207031 176.855469 155.757812 185.117188 148.917969 C 186.570312 151.132812 187.257812 153.863281 187.058594 156.910156 C 187.773438 155.679688 188.367188 154.425781 188.832031 153.125 C 189.867188 150.222656 190.136719 147.542969 189.71875 145.15625 C 194.488281 141.394531 199.382812 137.828125 204.445312 134.457031 C 204.25 135.171875 204.128906 135.882812 204.078125 136.574219 C 205.183594 134.925781 206.539062 133.402344 208.113281 132.074219 L 208.1875 132.023438 C 210.347656 130.132812 212.90625 128.582031 215.660156 127.425781 L 215.734375 127.378906 C 220.015625 125.605469 224.734375 124.695312 229.332031 124.964844 C 238.703125 125.507812 244.851562 130.695312 244.605469 138 C 245.320312 136.894531 245.910156 135.761719 246.328125 134.605469 C 247.671875 130.9375 247.394531 127.648438 245.867188 124.984375 C 243.734375 121.261719 239.140625 118.769531 232.972656 118.25 C 262.757812 104.011719 296.101562 96.042969 331.320312 96.042969 C 375.5625 96.042969 416.851562 108.613281 451.847656 130.375 C 451.800781 130.464844 451.765625 130.5625 451.71875 130.652344 C 453.171875 131.582031 454.59375 132.523438 455.992188 133.480469 C 456.113281 133.398438 456.226562 133.308594 456.347656 133.230469 C 466.382812 139.796875 475.898438 147.125 484.753906 155.164062 C 486.671875 156.886719 488.566406 158.65625 490.433594 160.5 C 495.082031 164.976562 499.535156 169.648438 503.765625 174.546875 C 510.550781 182.289062 516.800781 190.527344 522.476562 199.160156 C 522.699219 199.503906 522.945312 199.847656 523.144531 200.195312 C 515.117188 199.054688 508.089844 202.59375 504.714844 209.082031 C 503.5 211.421875 502.746094 214.132812 502.609375 217.164062 C 502.511719 219.082031 502.699219 221 503.085938 222.875 C 503.101562 222.945312 503.109375 223.019531 503.125 223.089844 C 505.632812 213.449219 514.757812 208.015625 525.0625 210.25 C 526.929688 210.644531 528.703125 211.285156 530.398438 212.09375 L 530.398438 212.121094 C 534.847656 219.964844 538.859375 228.082031 542.375 236.492188 C 543.113281 238.238281 543.828125 240.007812 544.511719 241.777344 C 546.015625 245.640625 547.417969 249.5 548.695312 253.460938 L 548.695312 253.484375 C 548.621094 254 548.574219 254.539062 548.546875 255.109375 C 548.449219 257.125 548.570312 259.140625 548.941406 261.132812 C 549.210938 259.953125 549.605469 258.84375 550.070312 257.8125 C 551.644531 262.902344 553.023438 268.09375 554.230469 273.332031 C 555.3125 278.050781 556.246094 282.847656 557.03125 287.714844 C 557.378906 289.734375 557.671875 291.726562 557.941406 293.765625 L 557.941406 293.792969 C 550.761719 296.027344 545.03125 303.234375 544.046875 312.847656 C 543.828125 314.988281 543.851562 317.105469 544.121094 319.144531 C 546.480469 311.152344 552.3125 305.472656 559.097656 304.070312 C 559.714844 310.882812 560.03125 317.792969 560.03125 324.753906 C 560.03125 329.648438 559.882812 334.515625 559.566406 339.335938 C 559.34375 343.023438 559.023438 346.6875 558.609375 350.328125 C 558.558594 350.871094 558.507812 351.410156 558.4375 351.976562 C 548.179688 351.386719 538.269531 360.4375 536.328125 372.976562 C 535.980469 375.167969 535.910156 377.28125 536.058594 379.324219 C 539.476562 369.4375 548.03125 362.648438 556.859375 362.871094 C 554.871094 374.773438 551.945312 386.378906 548.179688 397.570312 C 547.074219 400.890625 545.867188 404.1875 544.589844 407.433594 C 544.148438 408.613281 543.679688 409.792969 543.1875 410.976562 C 534.996094 413.582031 527.792969 421.476562 525.726562 431.117188 C 525.285156 433.132812 525.113281 435.125 525.1875 436.996094 C 527.742188 430.894531 532.441406 425.855469 537.875 423.050781 C 534.457031 430.230469 530.671875 437.191406 526.539062 443.929688 C 525.457031 445.699219 524.347656 447.472656 523.21875 449.195312 C 520.882812 452.785156 518.449219 456.324219 515.914062 459.765625 C 515.125 460.851562 514.339844 461.90625 513.480469 462.964844 C 514.09375 461.636719 514.585938 460.234375 514.929688 458.808594 C 517.90625 446.878906 510.675781 436.007812 498.476562 434.902344 C 486.277344 433.796875 473.910156 443.238281 471.179688 455.511719 C 470.738281 457.503906 470.5625 459.421875 470.640625 461.242188 C 475.113281 451.507812 485.886719 444.546875 496.488281 445.429688 C 506.617188 446.289062 513.257812 453.863281 513.382812 463.136719 L 513.382812 463.1875 L 513.359375 463.210938 C 510.699219 466.652344 508.070312 469.949219 505.214844 473.21875 L 505.140625 473.292969 C 500.886719 478.332031 496.386719 483.179688 491.667969 487.777344 C 490.902344 488.566406 490.117188 489.328125 489.328125 490.089844 C 488 489.722656 486.601562 489.5 485.101562 489.398438 C 473.171875 488.660156 460.753906 497.148438 457.679688 507.5 C 457.1875 509.171875 456.941406 510.796875 456.941406 512.320312 C 461.195312 504.867188 470.515625 499.066406 479.960938 498.570312 C 472.804688 504.695312 465.253906 510.402344 457.359375 515.59375 C 456.570312 516.128906 455.785156 516.648438 455 517.140625 C 451.015625 519.722656 446.957031 522.183594 442.800781 524.492188 C 442.847656 516.992188 435.988281 510.476562 425.488281 509.6875 C 413.066406 508.707031 400.796875 516.378906 398.363281 525.722656 C 397.96875 527.226562 397.84375 528.675781 397.96875 530.054688 C 402.125 522.796875 412.746094 517.339844 423.445312 518.152344 C 430.921875 518.667969 436.503906 522.058594 438.988281 526.558594 C 428.5625 532.144531 417.667969 536.9375 406.355469 540.871094 C 404.117188 541.636719 401.878906 542.371094 399.59375 543.085938 C 396.394531 538.636719 392.855469 534.480469 389.164062 530.789062 C 379.558594 521.125 368.652344 522.199219 357.648438 515.75 C 350.464844 511.542969 345.40625 504.292969 337.414062 501.34375 C 329.355469 498.367188 320.484375 498.625 312.421875 495.625 C 295.464844 489.320312 297.402344 464.917969 280.472656 458.484375 C 273.300781 455.761719 265.085938 457.816406 258.234375 453.914062 C 249.15625 448.75 247.558594 440.410156 241.339844 432.714844 C 233.492188 422.976562 224.367188 421.84375 213.03125 420.417969 C 200.980469 418.917969 200.023438 416.558594 194.855469 406.625 C 190.285156 397.792969 186.101562 390.464844 174.914062 388.425781 C 164.78125 386.582031 154.5 390.34375 145.328125 392.0625 C 145.195312 392.089844 145.050781 392.101562 144.917969 392.125 C 143.199219 403.722656 134.226562 410.785156 124.523438 408.417969 C 121.722656 407.730469 119.148438 406.332031 116.886719 404.445312 C 116.976562 404.695312 117.074219 404.9375 117.164062 405.183594 C 117.070312 404.929688 116.96875 404.6875 116.875 404.433594 L 116.875 404.410156 C 116.042969 402.167969 115.253906 399.90625 114.492188 397.636719 C 114.371094 397.269531 114.246094 396.910156 114.128906 396.542969 C 112.914062 392.871094 111.78125 389.164062 110.75 385.398438 L 110.726562 385.300781 C 109.941406 382.449219 109.226562 379.597656 108.535156 376.695312 C 110.945312 367.128906 118.523438 361.078125 127.472656 362.824219 C 136.179688 364.519531 143.289062 373.398438 144.910156 383.753906 C 145.277344 382.300781 145.550781 380.777344 145.671875 379.152344 C 146.707031 366.21875 138.640625 353.921875 128.210938 351.980469 C 117.738281 350.0625 109.082031 358.765625 108.195312 371.1875 C 108.097656 372.464844 108.097656 373.71875 108.167969 374.972656 C 106.988281 369.710938 105.957031 364.402344 105.144531 358.988281 L 105.144531 358.941406 C 104.824219 356.726562 104.503906 354.511719 104.261719 352.277344 L 104.261719 352.25 C 103.617188 346.964844 103.152344 341.601562 102.882812 336.191406 C 104.605469 339.316406 105.785156 343.054688 106.203125 347.039062 C 106.570312 345.585938 106.84375 344.0625 106.992188 342.464844 C 107.679688 335.332031 105.882812 328.542969 102.636719 323.722656 C 102.636719 320.105469 102.734375 316.539062 102.929688 312.972656 Z M 102.929688 312.972656 " fill-opacity="1" fill-rule="nonzero"/></g><path fill="#000000" d="M 122.136719 262.125 C 125.679688 252.011719 134.527344 244.972656 143.894531 245.746094 C 152.886719 246.484375 159.375 254.484375 159.898438 264.742188 C 160.464844 263.214844 160.917969 261.613281 161.222656 259.957031 C 163.628906 247.015625 156.539062 236.03125 145.804688 235.238281 C 135.046875 234.441406 124.832031 243.792969 122.558594 256.242188 C 122.191406 258.25 122.074219 260.21875 122.136719 262.125 Z M 122.136719 262.125 " fill-opacity="1" fill-rule="nonzero"/><path fill="#000000" d="M 134.015625 304.390625 C 142.867188 305.597656 149.730469 314.207031 150.789062 324.730469 C 151.253906 323.230469 151.601562 321.632812 151.820312 319.960938 C 153.542969 306.679688 145.945312 294.777344 135.320312 293.449219 C 124.695312 292.121094 115.300781 301.414062 113.726562 314.105469 C 113.480469 316.171875 113.429688 318.1875 113.628906 320.179688 C 116.53125 310 124.769531 303.140625 134.015625 304.390625 Z M 134.015625 304.390625 " fill-opacity="1" fill-rule="nonzero"/><path fill="#000000" d="M 284.535156 105.03125 C 273.539062 104.3125 261.871094 108.542969 258.378906 116.027344 C 258.222656 116.359375 258.113281 116.695312 257.996094 117.027344 C 266.546875 112.214844 276.1875 108.25 286.675781 105.242188 C 285.980469 105.152344 285.269531 105.078125 284.535156 105.03125 Z M 284.535156 105.03125 " fill-opacity="1" fill-rule="nonzero"/><path fill="#000000" d="M 245.886719 244.851562 C 232.851562 243.429688 220.53125 252.871094 218.171875 266.199219 C 217.777344 268.386719 217.703125 270.527344 217.875 272.617188 C 221.933594 261.820312 232.730469 254.714844 244.191406 256.019531 C 255.132812 257.25 263.273438 266.003906 264.378906 276.898438 C 264.96875 275.324219 265.4375 273.652344 265.707031 271.933594 C 267.898438 258.28125 258.921875 246.304688 245.886719 244.851562 Z M 245.886719 244.851562 " fill-opacity="1" fill-rule="nonzero"/><path fill="#000000" d="M 208.605469 334.886719 C 212.246094 323.96875 222.773438 316.789062 234.28125 318.386719 C 245.320312 319.910156 253.734375 329.132812 255.160156 340.246094 C 255.699219 338.648438 256.09375 336.976562 256.339844 335.230469 C 258.210938 321.261719 248.816406 308.5 235.632812 306.753906 C 222.425781 304.984375 210.449219 314.695312 208.65625 328.371094 C 208.359375 330.585938 208.359375 332.773438 208.605469 334.886719 Z M 208.605469 334.886719 " fill-opacity="1" fill-rule="nonzero"/><path fill="#000000" d="M 227.59375 368.996094 C 214.457031 366.953125 202.996094 376.300781 201.816406 389.582031 C 201.621094 391.71875 201.695312 393.859375 202.039062 395.925781 C 205.136719 385.449219 215.222656 378.664062 226.65625 380.484375 C 237.625 382.226562 246.207031 391.472656 247.90625 402.246094 C 248.421875 400.695312 248.765625 399.074219 248.9375 397.378906 C 250.363281 383.898438 240.722656 371.039062 227.59375 368.996094 Z M 227.59375 368.996094 " fill-opacity="1" fill-rule="nonzero"/><path fill="#000000" d="M 199.578125 222.054688 C 209.640625 222.914062 216.917969 230.910156 217.507812 241.191406 C 218.148438 239.664062 218.640625 238.089844 218.960938 236.441406 C 221.542969 223.53125 213.671875 212.613281 201.671875 211.652344 C 189.644531 210.695312 177.914062 219.769531 175.207031 232.335938 C 174.765625 234.351562 174.59375 236.34375 174.667969 238.285156 C 178.824219 228.082031 189.054688 221.144531 199.578125 222.054688 Z M 199.578125 222.054688 " fill-opacity="1" fill-rule="nonzero"/><path fill="#000000" d="M 164.386719 290.816406 C 164.042969 292.980469 163.96875 295.097656 164.144531 297.160156 C 167.734375 286.511719 177.59375 279.355469 188.242188 280.609375 C 198.421875 281.792969 206.046875 290.570312 207.105469 301.414062 C 207.667969 299.84375 208.0625 298.195312 208.332031 296.472656 C 210.449219 282.847656 202.015625 270.773438 189.867188 269.421875 C 177.691406 268.070312 166.453125 277.613281 164.386719 290.816406 Z M 164.386719 290.816406 " fill-opacity="1" fill-rule="nonzero"/><path fill="#000000" d="M 180.617188 330.804688 C 168.496094 328.984375 157.84375 338.355469 156.46875 351.535156 C 156.25 353.699219 156.273438 355.816406 156.542969 357.878906 C 159.566406 347.378906 168.9375 340.515625 179.535156 342.164062 C 189.644531 343.765625 197.589844 352.863281 199.089844 363.707031 C 199.578125 362.160156 199.921875 360.535156 200.121094 358.816406 C 201.621094 345.242188 192.742188 332.597656 180.617188 330.804688 Z M 180.617188 330.804688 " fill-opacity="1" fill-rule="nonzero"/><path fill="#000000" d="M 349.769531 322.320312 C 335.675781 320.375 322.667969 330.214844 320.773438 344.304688 C 320.453125 346.570312 320.453125 348.832031 320.722656 350.996094 C 324.734375 339.78125 336.167969 332.5 348.464844 334.199219 C 360.269531 335.820312 369.050781 345.191406 370.449219 356.429688 C 371.039062 354.808594 371.457031 353.085938 371.703125 351.316406 C 373.671875 337.269531 363.832031 324.261719 349.769531 322.320312 Z M 349.769531 322.320312 " fill-opacity="1" fill-rule="nonzero"/><path fill="#000000" d="M 341.035156 385.625 C 327.019531 383.703125 314.230469 393.367188 312.535156 406.871094 C 312.265625 409.058594 312.289062 411.222656 312.582031 413.289062 C 316.34375 402.617188 327.609375 395.558594 339.78125 397.207031 C 351.488281 398.78125 360.144531 407.828125 361.523438 418.476562 C 362.113281 416.953125 362.53125 415.332031 362.777344 413.660156 C 364.769531 400.230469 355.054688 387.515625 341.035156 385.625 Z M 341.035156 385.625 " fill-opacity="1" fill-rule="nonzero"/><path fill="#000000" d="M 331.59375 457.1875 C 342.929688 458.660156 351.367188 466.875 352.695312 476.296875 C 353.261719 474.921875 353.652344 473.492188 353.898438 471.96875 C 355.820312 460.0625 346.375 448.382812 332.699219 446.585938 C 319.027344 444.765625 306.730469 453.644531 305.378906 465.769531 C 305.15625 467.710938 305.230469 469.628906 305.550781 471.449219 C 308.992188 462.007812 319.742188 455.613281 331.59375 457.1875 Z M 331.59375 457.1875 " fill-opacity="1" fill-rule="nonzero"/><path fill="#000000" d="M 269.816406 304.589844 C 269.472656 306.851562 269.445312 309.117188 269.71875 311.277344 C 273.699219 300.113281 284.941406 292.859375 297.039062 294.480469 C 308.625 296.007812 317.332031 305.277344 318.707031 316.539062 C 319.296875 314.917969 319.742188 313.195312 319.984375 311.402344 C 321.953125 297.335938 312.238281 284.570312 298.441406 282.773438 C 284.644531 280.980469 271.882812 290.695312 269.816406 304.589844 Z M 269.816406 304.589844 " fill-opacity="1" fill-rule="nonzero"/><path fill="#000000" d="M 289.367188 346.714844 C 275.496094 344.753906 262.960938 354.507812 261.308594 368.316406 C 261.039062 370.546875 261.101562 372.742188 261.394531 374.871094 C 265.066406 363.933594 276.082031 356.789062 288.160156 358.515625 C 299.777344 360.167969 308.550781 369.558594 310.042969 380.664062 C 310.609375 379.046875 311.023438 377.347656 311.257812 375.570312 C 313.082031 361.679688 303.242188 348.664062 289.367188 346.714844 Z M 289.367188 346.714844 " fill-opacity="1" fill-rule="nonzero"/><path fill="#000000" d="M 281.695312 408.9375 C 268.019531 406.871094 255.972656 416.09375 254.8125 429.027344 C 254.621094 431.121094 254.71875 433.160156 255.085938 435.152344 C 258.332031 425.019531 268.90625 418.378906 280.785156 420.148438 C 292.195312 421.847656 300.925781 430.773438 302.574219 441.054688 C 303.089844 439.578125 303.460938 438.03125 303.65625 436.40625 C 305.230469 423.496094 295.394531 410.953125 281.695312 408.9375 Z M 281.695312 408.9375 " fill-opacity="1" fill-rule="nonzero"/><path fill="#000000" d="M 491.171875 248.4375 C 491.335938 247.890625 491.457031 247.320312 491.574219 246.75 C 491.386719 246.996094 491.199219 247.242188 491.007812 247.484375 C 491.078125 247.800781 491.117188 248.121094 491.171875 248.4375 Z M 491.171875 248.4375 " fill-opacity="1" fill-rule="nonzero"/><path fill="#000000" d="M 465.5625 275.011719 C 452.410156 272.835938 440.257812 282.003906 438.597656 295.757812 C 438.328125 297.980469 438.382812 300.175781 438.671875 302.3125 C 442.390625 291.351562 453.179688 284.5 464.6875 286.363281 C 475.757812 288.15625 484.03125 297.300781 485.480469 308.207031 C 485.996094 306.621094 486.363281 304.957031 486.554688 303.222656 C 488.046875 289.71875 478.722656 277.191406 465.5625 275.011719 Z M 465.5625 275.011719 " fill-opacity="1" fill-rule="nonzero"/><path fill="#000000" d="M 458.132812 337.472656 C 444.808594 335.558594 432.183594 345.300781 430.171875 359.203125 C 429.84375 361.449219 429.84375 363.648438 430.078125 365.78125 C 434.109375 354.730469 445.230469 347.496094 456.851562 349.113281 C 468.027344 350.664062 476.058594 359.722656 477.105469 370.574219 C 477.6875 368.976562 478.125 367.304688 478.386719 365.5625 C 480.4375 351.972656 471.464844 339.378906 458.132812 337.472656 Z M 458.132812 337.472656 " fill-opacity="1" fill-rule="nonzero"/><path fill="#000000" d="M 448.757812 399.316406 C 435.480469 397.726562 422.667969 407.4375 420.40625 420.675781 C 420.042969 422.808594 419.996094 424.886719 420.179688 426.890625 C 424.394531 416.414062 435.601562 409.261719 447.140625 410.59375 C 458.238281 411.863281 465.933594 420.378906 466.617188 430.582031 C 467.246094 429.066406 467.734375 427.480469 468.058594 425.828125 C 470.578125 412.910156 462.042969 400.894531 448.757812 399.316406 Z M 448.757812 399.316406 " fill-opacity="1" fill-rule="nonzero"/><path fill="#000000" d="M 437.632812 458.472656 C 424.644531 457.210938 411.945312 466.238281 409.542969 477.949219 C 409.15625 479.832031 409.078125 481.65625 409.21875 483.40625 C 413.476562 474.203125 424.515625 467.636719 435.753906 468.6875 C 446.558594 469.671875 453.808594 477.207031 454.140625 486.125 C 454.796875 484.796875 455.328125 483.398438 455.699219 481.9375 C 458.609375 470.511719 450.621094 459.707031 437.632812 458.472656 Z M 437.632812 458.472656 " fill-opacity="1" fill-rule="nonzero"/><path fill="#000000" d="M 407.808594 297.902344 C 393.960938 295.859375 381.097656 305.523438 379.179688 319.566406 C 378.863281 321.878906 378.863281 324.140625 379.15625 326.355469 C 383.117188 315.089844 394.503906 307.859375 406.625 309.632812 C 418.210938 311.304688 426.890625 320.574219 428.269531 331.742188 C 428.859375 330.117188 429.25 328.445312 429.496094 326.671875 C 431.339844 312.753906 421.652344 299.914062 407.808594 297.902344 Z M 407.808594 297.902344 " fill-opacity="1" fill-rule="nonzero"/><path fill="#000000" d="M 399.101562 361.816406 C 385.203125 359.949219 372.195312 369.808594 370.203125 383.628906 C 369.882812 385.894531 369.859375 388.082031 370.15625 390.222656 C 374.164062 379.230469 385.625 371.949219 397.722656 373.546875 C 409.359375 375.097656 417.816406 384.195312 418.972656 395.042969 C 419.5625 393.46875 420.003906 391.796875 420.273438 390.074219 C 422.4375 376.425781 413.019531 363.6875 399.101562 361.816406 Z M 399.101562 361.816406 " fill-opacity="1" fill-rule="nonzero"/><path fill="#000000" d="M 389.6875 423.488281 C 375.984375 421.808594 363.152344 431.234375 361.21875 444.03125 C 360.910156 446.089844 360.917969 448.097656 361.160156 450.035156 C 365.121094 439.976562 376.335938 433.113281 388.214844 434.535156 C 399.640625 435.886719 407.769531 444.339844 408.703125 454.253906 C 409.320312 452.796875 409.792969 451.257812 410.097656 449.65625 C 412.464844 437.09375 403.398438 425.140625 389.6875 423.488281 Z M 389.6875 423.488281 " fill-opacity="1" fill-rule="nonzero"/><path fill="#000000" d="M 379.84375 480.597656 C 366.613281 479.171875 354.265625 487.535156 352.523438 498.429688 C 352.226562 500.199219 352.226562 501.894531 352.472656 503.519531 C 356.183594 495.035156 366.933594 489.035156 378.34375 490.238281 C 389.285156 491.371094 397.007812 498.601562 397.796875 506.839844 C 398.386719 505.632812 398.828125 504.382812 399.148438 503.050781 C 401.632812 492.453125 393.050781 482 379.84375 480.597656 Z M 379.84375 480.597656 " fill-opacity="1" fill-rule="nonzero"/><path fill="#000000" d="M 522.792969 255.785156 C 510.828125 253.382812 499.925781 261.824219 498.734375 275.011719 C 498.539062 277.144531 498.644531 279.257812 498.960938 281.320312 C 502.140625 270.832031 511.871094 264.519531 522.34375 266.566406 C 532.417969 268.542969 540.023438 277.425781 541.558594 287.871094 C 541.980469 286.363281 542.269531 284.785156 542.398438 283.136719 C 543.398438 270.308594 534.773438 258.199219 522.792969 255.785156 Z M 522.792969 255.785156 " fill-opacity="1" fill-rule="nonzero"/><path fill="#000000" d="M 517.578125 314.769531 C 505.414062 312.742188 493.820312 322.050781 492.042969 335.683594 C 491.753906 337.886719 491.765625 340.046875 492 342.144531 C 495.695312 331.300781 505.945312 324.355469 516.570312 326.046875 C 526.789062 327.679688 534.117188 336.527344 535.160156 347.105469 C 535.667969 345.550781 536.042969 343.925781 536.261719 342.230469 C 537.949219 329.046875 529.753906 316.800781 517.578125 314.769531 Z M 517.578125 314.769531 " fill-opacity="1" fill-rule="nonzero"/><path fill="#000000" d="M 509.324219 376.046875 C 497.0625 374.492188 484.960938 384.171875 482.660156 397.515625 C 482.289062 399.667969 482.21875 401.765625 482.371094 403.789062 C 486.5 393.175781 497.109375 385.976562 507.792969 387.257812 C 518.066406 388.480469 525.066406 396.890625 525.617188 407.097656 C 526.203125 405.574219 526.664062 403.976562 526.964844 402.324219 C 529.320312 389.417969 521.585938 377.597656 509.324219 376.046875 Z M 509.324219 376.046875 " fill-opacity="1" fill-rule="nonzero"/><path fill="#000000" d="M 213.503906 168.5 C 223.34375 169.125 230.0625 175.925781 230.253906 185.019531 C 230.929688 183.652344 231.476562 182.234375 231.859375 180.769531 C 234.480469 170.828125 229.304688 162.601562 220.179688 160.21875 C 218.871094 159.875 217.484375 159.65625 216.023438 159.566406 C 204.371094 158.859375 192.347656 166.707031 189.011719 177.84375 C 188.472656 179.644531 188.222656 181.417969 188.195312 183.136719 C 192.835938 173.964844 203.261719 167.851562 213.503906 168.5 Z M 213.503906 168.5 " fill-opacity="1" fill-rule="nonzero"/></svg>